<svg width="341" height="81" viewBox="0 0 341 81" fill="none" xmlns="http://www.w3.org/2000/svg">
<path fill-rule="evenodd" clip-rule="evenodd" d="M102.274 1.86935C155.234 -1.75321 217.809 0.495678 260.727 3.49035C278.479 4.72905 297.519 6.68043 312.362 10.9044C319.776 13.0144 326.263 15.7233 331.04 19.2842C335.829 22.8537 339.086 27.4318 339.579 33.2809C340.131 39.8492 337.777 45.5353 333.331 50.3252C328.927 55.0688 322.417 59.0074 314.412 62.2764C298.388 68.8201 275.855 72.8829 250.627 74.998C241.113 75.7956 231.2 76.3175 221.085 76.5891C220.296 76.6756 219.504 76.761 218.709 76.8452C187.99 80.0997 152.792 81.6613 119.787 80.7368C86.8079 79.813 55.9151 76.4048 33.856 69.6711C22.8457 66.3102 13.8766 62.0749 7.95214 56.772C1.96582 51.4137 -1.07974 44.7758 0.348459 36.878L0.354071 36.8469L0.360616 36.8161C1.59072 31.0277 5.51807 26.2598 11.1816 22.3183C16.8612 18.3657 24.4934 15.0954 33.5449 12.3852C51.6578 6.96165 75.8067 3.67982 102.274 1.86935ZM220.892 72.9115C177.554 74.0667 130.494 70.6086 95.5922 64.5572C94.7118 64.4045 93.8898 65.0956 93.7561 66.1008C93.6224 67.106 94.2277 68.0446 95.1081 68.1972C118.766 72.299 147.956 75.2143 177.81 76.3219C158.62 77.2929 138.875 77.5886 119.866 77.0561C86.9689 76.1346 56.3776 72.7348 34.6889 66.1142C23.8254 62.7981 15.3548 58.7197 9.94155 53.8744C4.59934 49.0927 2.40768 43.758 3.5008 37.6538C4.45136 33.229 7.55549 29.1537 12.8599 25.4622C18.1605 21.7732 25.455 18.6138 34.3628 15.9466C52.1685 10.6151 76.0684 7.35033 102.467 5.54458C155.241 1.93469 217.671 4.17473 260.53 7.16531C278.278 8.4037 297.055 10.3427 311.582 14.4769C318.852 16.546 324.938 19.1331 329.277 22.3672C333.604 25.5924 336.005 29.3079 336.369 33.633C336.805 38.8206 335.016 43.4478 331.118 47.6471C327.176 51.8926 321.139 55.6191 313.326 58.8096C301 63.8431 284.574 67.417 265.836 69.7356C275.892 67.6158 284.444 65.2623 290.96 62.7335C291.803 62.4063 292.254 61.3607 291.968 60.3981C291.681 59.4355 290.766 58.9203 289.923 59.2475C275.479 64.8529 250.455 69.6653 220.892 72.9115ZM72.1018 80.228C41.0829 78.236 17.7806 68.1412 9.98486 63.3255L10.2406 62.7857C17.9629 67.5561 41.1876 77.6281 72.132 79.6153L72.1018 80.228ZM278.914 2.76092C288.843 3.37377 303.843 5.45778 316.567 9.71377C322.93 11.8422 328.708 14.5085 332.997 17.7933C337.289 21.0806 340.048 24.954 340.466 29.4867L341 29.4224C340.558 24.6278 337.647 20.616 333.296 17.2837C328.942 13.9489 323.105 11.2612 316.718 9.12488C303.941 4.85131 288.898 2.7626 278.943 2.14818L278.914 2.76092Z" fill="#D7CFFF"/>
</svg>
